<svg xmlns="http://www.w3.org/2000/svg" xmlns:xlink="http://www.w3.org/1999/xlink" width="332.5" height="209.831" viewBox="0 0 332.5 209.831">
  <defs>
    <linearGradient id="linear-gradient" x1="0.29" y1="-0.14" x2="0.567" y2="1.113" gradientUnits="objectBoundingBox">
      <stop offset="0" stop-color="#46ff9b"/>
      <stop offset="1" stop-color="#0f1724"/>
    </linearGradient>
    <linearGradient id="linear-gradient-2" x1="1" y1="0.059" x2="1" y2="0.914" gradientUnits="objectBoundingBox">
      <stop offset="0" stop-color="#0f1724"/>
      <stop offset="0.21" stop-color="#0e341e"/>
      <stop offset="0.547" stop-color="#3cd359"/>
      <stop offset="0.805" stop-color="#133921"/>
      <stop offset="1" stop-color="#091d11"/>
    </linearGradient>
    <filter id="타원_137" x="244.556" y="43.174" width="76" height="76" filterUnits="userSpaceOnUse">
      <feOffset input="SourceAlpha"/>
      <feGaussianBlur stdDeviation="10" result="blur"/>
      <feFlood flood-color="#00123c" flood-opacity="0.502"/>
      <feComposite operator="in" in2="blur"/>
      <feComposite in="SourceGraphic"/>
    </filter>
    <filter id="타원_138" x="148" y="73.832" width="76" height="76" filterUnits="userSpaceOnUse">
      <feOffset input="SourceAlpha"/>
      <feGaussianBlur stdDeviation="10" result="blur-2"/>
      <feFlood flood-color="#00123c" flood-opacity="0.502"/>
      <feComposite operator="in" in2="blur-2"/>
      <feComposite in="SourceGraphic"/>
    </filter>
  </defs>
  <g id="그룹_25790" data-name="그룹 25790" transform="translate(0 80.509)">
    <path id="패스_864761" data-name="패스 864761" d="M489.144,560.063,392.5,592.434v67.934h96.644Z" transform="translate(-206.5 -558.971)" opacity="0.56" fill="url(#linear-gradient)"/>
    <path id="패스_864760" data-name="패스 864760" d="M392.5,646.324l264.668-85.031" transform="translate(-374.499 -561.293)" fill="none" stroke="#fff" stroke-width="1" stroke-dasharray="3" opacity="0.4"/>
    <path id="패스_864759" data-name="패스 864759" d="M392.718,569.868l96.337-30.926" transform="translate(-206.5 -538.277)" fill="none" stroke="#fff" stroke-width="4"/>
    <path id="패스_864764" data-name="패스 864764" d="M99.5,128.323h-1V-80.509h1Z" transform="translate(183.644)" fill="url(#linear-gradient-2)"/>
    <circle id="타원_136" data-name="타원 136" cx="4" cy="4" r="4" transform="translate(14 81.031)" fill="#fff"/>
    <g transform="matrix(1, 0, 0, 1, 0, -80.51)" filter="url(#타원_137)">
      <g id="타원_137-2" data-name="타원 137" transform="translate(274.56 73.17)" fill="#3bd359" stroke="#fff" stroke-width="2">
        <circle cx="8" cy="8" r="8" stroke="none"/>
        <circle cx="8" cy="8" r="7" fill="none"/>
      </g>
    </g>
    <rect id="사각형_357137" data-name="사각형 357137" width="332.5" height="1" transform="translate(0 128.323)" fill="#fff" opacity="0.3"/>
    <g transform="matrix(1, 0, 0, 1, 0, -80.51)" filter="url(#타원_138)">
      <g id="타원_138-2" data-name="타원 138" transform="translate(178 103.83)" fill="#3bd359" stroke="#fff" stroke-width="2">
        <circle cx="8" cy="8" r="8" stroke="none"/>
        <circle cx="8" cy="8" r="7" fill="none"/>
      </g>
    </g>
  </g>
</svg>
