<svg xmlns="http://www.w3.org/2000/svg" xmlns:xlink="http://www.w3.org/1999/xlink" width="180.282" height="34" viewBox="0 0 180.282 34">
  <defs>
    <clipPath id="clip-path">
      <rect id="사각형_357229" data-name="사각형 357229" width="61" height="34" transform="translate(0.096 0.056)" fill="#fff"/>
    </clipPath>
  </defs>
  <g id="그룹_26605" data-name="그룹 26605" transform="translate(-53.022 -1026.056)">
    <path id="패스_865004" data-name="패스 865004" d="M1.022,1.381H2.8V-2.455h2.1c2.467,0,4.059-1.289,4.059-3.5,0-2.165-1.56-3.486-4.091-3.486H1.022ZM4.858-8.011A2.018,2.018,0,0,1,7.135-5.941c0,1.258-.828,2.053-2.324,2.053H2.8V-8.011Zm11.732,9.6c2.42,0,3.964-1.576,3.964-4.441,0-2.77-1.5-4.473-3.964-4.473-2.42,0-3.964,1.592-3.964,4.473C12.627-.083,14.123,1.588,16.59,1.588Zm0-1.433c-1.433,0-2.229-1.082-2.229-3.009,0-1.974.8-3.04,2.229-3.04s2.229,1.1,2.229,3.04C18.819-.895,18.039.156,16.59.156ZM31.936,1.381h2.133L36.536-7.1H34.785L33.225-.8l-.191.907L32.843-.8l-1.8-6.3h-1.8L27.463-.8,27.24.156,27.033-.8l-1.56-6.3H23.642l2.451,8.485h2.1l1.687-6.033.191-.955.175.955Zm15.7-2.77H45.849A2.013,2.013,0,0,1,43.716.172c-1.385,0-2.2-.971-2.292-2.706h6.145v-.414c0-2.722-1.48-4.378-3.932-4.378-2.42,0-3.948,1.592-3.948,4.473,0,2.77,1.528,4.441,4.027,4.441A3.7,3.7,0,0,0,47.632-1.388Zm-4-4.521c1.21,0,1.958.78,2.165,2.213h-4.33C41.678-5.129,42.41-5.909,43.636-5.909Zm8.071,7.291h1.7V-3.251a2.155,2.155,0,0,1,2.324-2.467,3.076,3.076,0,0,1,.907.111V-7.1a1.3,1.3,0,0,0-.812-.223,2.654,2.654,0,0,0-2.42,1.48V-7.1h-1.7Zm15.9-2.77H65.826A2.013,2.013,0,0,1,63.693.172C62.308.172,61.5-.8,61.4-2.535h6.145v-.414c0-2.722-1.48-4.378-3.932-4.378-2.42,0-3.948,1.592-3.948,4.473,0,2.77,1.528,4.441,4.027,4.441A3.7,3.7,0,0,0,67.609-1.388Zm-4-4.521c1.21,0,1.958.78,2.165,2.213h-4.33C61.656-5.129,62.388-5.909,63.614-5.909Zm11.254,7.5A2.7,2.7,0,0,0,77.176.347V1.381h1.7V-10.08h-1.7v3.932a2.681,2.681,0,0,0-2.308-1.178c-2.213,0-3.6,1.592-3.6,4.473C71.271-.083,72.624,1.588,74.868,1.588ZM75.091.156c-1.321,0-2.085-1.082-2.085-3.009,0-1.958.732-3.04,2.085-3.04,1.321,0,2.085,1.1,2.085,3.04C77.176-.895,76.444.156,75.091.156ZM90.627,1.381V.426a2.706,2.706,0,0,0,2.308,1.162c2.2,0,3.582-1.592,3.582-4.473,0-2.77-1.353-4.441-3.582-4.441a2.709,2.709,0,0,0-2.308,1.21V-10.08h-1.7V1.381Zm2.085-7.275c1.321,0,2.069,1.082,2.069,3.009,0,1.974-.732,3.04-2.069,3.04s-2.085-1.1-2.085-3.04S91.344-5.893,92.713-5.893Zm8.2,10.984c1.512,0,2.165-.6,3.025-2.722L107.788-7.1h-1.735l-2.038,5.285-.366,1.162-.366-1.162-2.1-5.285H99.351l3.407,8.182-.255.589c-.732,1.767-1.1,1.958-2.069,1.958h-.462V4.931A3.251,3.251,0,0,0,100.911,5.09Z" transform="translate(52 1048.496)" fill="#fff"/>
    <g id="그룹_25981" data-name="그룹 25981" transform="translate(172.208 1026)">
      <g id="그룹_25980" data-name="그룹 25980" transform="translate(0 0)" clip-path="url(#clip-path)">
        <path id="패스_864854" data-name="패스 864854" d="M53.384,125.37H51.242c-1.344,0-2.055.626-2.055,1.811v3.851h1.62V127.5c0-.179,0-.6.835-.6H53c.728,0,.821.32.821.6v3.537h1.606v-3.851c0-1.185-.705-1.811-2.04-1.811" transform="translate(-38.15 -96.935)" fill="#fff"/>
        <path id="패스_864855" data-name="패스 864855" d="M152.737,124.336a2.526,2.526,0,0,0-1.4-.306h-2.108a2.75,2.75,0,0,0-1.425.3,1.382,1.382,0,0,0-.7,1.236v2.62a1.313,1.313,0,0,0,.564,1.115,2.661,2.661,0,0,0,1.566.388h2.108a2.533,2.533,0,0,0,1.375-.3,1.329,1.329,0,0,0,.693-1.2v-2.62a1.359,1.359,0,0,0-.673-1.233m-.947,3.609a.347.347,0,0,1-.2.328.923.923,0,0,1-.509.111h-1.617a1.03,1.03,0,0,1-.552-.121.346.346,0,0,1-.194-.332v-2.118a.37.37,0,0,1,.206-.361,1.185,1.185,0,0,1,.629-.127H151a1.073,1.073,0,0,1,.6.132.37.37,0,0,1,.184.356Z" transform="translate(-114.095 -95.899)" fill="#fff"/>
        <path id="패스_864856" data-name="패스 864856" d="M200.345,127.841v-2.089c0-.187.041-.31.124-.364a1.2,1.2,0,0,1,.635-.11h1.88l.94-1.308H200.6c-1.549,0-1.874.836-1.874,1.538v2.543c0,1.058.736,1.594,2.186,1.594h2.1l.94-1.309h-2.785c-.822,0-.822-.347-.822-.5" transform="translate(-154.134 -95.851)" fill="#fff"/>
        <path id="패스_864857" data-name="패스 864857" d="M248.535,120.832l3.066-2.767h-2.062l-2.481,2.19V116.3h-1.619v7.416h1.619v-2.332l2.6,2.332h2.109Z" transform="translate(-190.365 -89.92)" fill="#fff"/>
        <path id="패스_864858" data-name="패스 864858" d="M4.134,125.37H.064L1,126.679H4.052c.576,0,.623.2.638.271a.2.2,0,0,1,0,.026v.494H2a2.436,2.436,0,0,0-1.433.38A1.327,1.327,0,0,0,0,129v.576A1.272,1.272,0,0,0,.634,130.7a2.663,2.663,0,0,0,1.434.346H4.391a2.176,2.176,0,0,0,1.379-.406,1.356,1.356,0,0,0,.537-1.111v-2.62c0-1.021-.731-1.538-2.172-1.538m.552,3.984c0,.111,0,.369-.649.369H2.3a1.02,1.02,0,0,1-.521-.122.275.275,0,0,1-.155-.261v-.163c0-.147,0-.452.662-.452H4.6a.457.457,0,0,1,.082.006Z" transform="translate(0 -96.935)" fill="#fff"/>
        <path id="패스_864859" data-name="패스 864859" d="M105.609,117.7h-1.619v1.831h-1.1v1.287h1.1v4.3h1.619v-4.3h.682l.943-1.287h-1.624Z" transform="translate(-79.798 -91.005)" fill="#fff"/>
        <path id="패스_864860" data-name="패스 864860" d="M150.191,65.754v5.5h5.192V65.383l-2.563,1.722Z" transform="translate(-116.49 -50.554)" fill="#fff"/>
        <path id="패스_864861" data-name="패스 864861" d="M154.94,36.363h-4.305a.449.449,0,0,0-.443.5v5.329l2.563,1.318,2.629-1.767v-4.88a.449.449,0,0,0-.444-.5" transform="translate(-116.49 -28.115)" fill="#fff"/>
        <path id="패스_864862" data-name="패스 864862" d="M99.8,39.309H95.425a.408.408,0,0,0-.409.454v5.9l5.192-1.779V39.763a.408.408,0,0,0-.409-.454" transform="translate(-73.695 -30.393)" fill="#fff"/>
        <path id="패스_864863" data-name="패스 864863" d="M95.016,70.3h5.192V64.155l-5.192,1.78Z" transform="translate(-73.696 -49.604)" fill="#fff"/>
        <path id="패스_864864" data-name="패스 864864" d="M127.353,23.673h-4.305a.449.449,0,0,0-.443.5v7.283l2.635-.9,2.557,1.315V24.172a.449.449,0,0,0-.444-.5" transform="translate(-95.093 -18.304)" fill="#fff"/>
        <path id="패스_864865" data-name="패스 864865" d="M122.6,59.658v6.489H127.8V60.136l-2.635-1.355Z" transform="translate(-95.093 -45.449)" fill="#fff"/>
        <path id="패스_864866" data-name="패스 864866" d="M67.429,77.535h5.192V73.509l-5.192,1.78Z" transform="translate(-52.299 -56.836)" fill="#fff"/>
        <path id="패스_864867" data-name="패스 864867" d="M72.178,60.5h-4.3a.449.449,0,0,0-.444.5v3.172l5.192-1.779V61a.449.449,0,0,0-.444-.5" transform="translate(-52.299 -46.778)" fill="#fff"/>
        <path id="패스_864868" data-name="패스 864868" d="M51.224,82.516h0l-.318.109.318.949,3.389-1.162V81.355l-.265.091Z" transform="translate(-39.483 -62.902)" fill="#fff"/>
        <path id="패스_864869" data-name="패스 864869" d="M182.971.478A.429.429,0,0,0,182.544,0h-4.338a.429.429,0,0,0-.427.478V12.956l5.192-3.49Z" transform="translate(-137.887)" fill="#fff"/>
        <path id="패스_864870" data-name="패스 864870" d="M186.555,34.273l-.842-.077.151.23.24.364-.023-.035.059.089h0l.017.025.045.068L183.283,36.9l-.313.21L177.778,40.6v6.539h5.192V38.313l3.779-2.54.026.039.029.044.406.618.653-2.081Z" transform="translate(-137.887 -26.44)" fill="#fff"/>
      </g>
    </g>
  </g>
</svg>
