<svg xmlns="http://www.w3.org/2000/svg" xmlns:xlink="http://www.w3.org/1999/xlink" width="161" height="43.209" viewBox="0 0 161 43.209">
  <defs>
    <clipPath id="clip-path">
      <rect id="사각형_357230" data-name="사각형 357230" width="44.609" height="43.209" fill="none"/>
    </clipPath>
    <clipPath id="clip-path-2">
      <rect id="사각형_357814" data-name="사각형 357814" width="102" height="30" transform="translate(77.973 72.183)" fill="red" opacity="0.278"/>
    </clipPath>
    <clipPath id="clip-path-3">
      <rect id="사각형_357230-2" data-name="사각형 357230" width="159.251" height="46.27" fill="none"/>
    </clipPath>
  </defs>
  <g id="그룹_26985" data-name="그룹 26985" transform="translate(-24 -61)">
    <g id="그룹_25984" data-name="그룹 25984" transform="translate(24 61)">
      <g id="그룹_25983" data-name="그룹 25983" clip-path="url(#clip-path)">
        <path id="패스_864871" data-name="패스 864871" d="M10.853.538A5,5,0,0,0,8.327,3.453L.262,27.692a5.046,5.046,0,0,0,3.191,6.376l26.45,8.88a5.035,5.035,0,0,0,6.377-3.194l8.069-24.233a5.05,5.05,0,0,0-3.192-6.383L14.708.261a5,5,0,0,0-3.855.278" transform="translate(0 0)" fill="#fff"/>
        <path id="패스_864872" data-name="패스 864872" d="M24.029,24.072a13.809,13.809,0,0,1-5.3,3.7l-1.193.463V17l1.179.457a13.852,13.852,0,0,1,5.318,3.683,12.152,12.152,0,0,0-5.88-17.7L14.327,2.168a3.263,3.263,0,0,0-4.129,2.1L2.11,28.517a3.311,3.311,0,0,0,2.12,4.166l18.356,6.129a12.151,12.151,0,0,0,1.443-14.74M13.419,28.924H11.6V16.333h1.822Z" transform="translate(-0.247 -0.254)" fill="#008ad3"/>
        <path id="패스_864873" data-name="패스 864873" d="M25.5,25.183A12.237,12.237,0,0,0,21.8,22.232v5.919A12.18,12.18,0,0,0,25.5,25.183" transform="translate(-2.775 -2.83)" fill="#ec4115"/>
        <path id="패스_864874" data-name="패스 864874" d="M44.028,11.5,27.183,5.875A13.873,13.873,0,0,1,28.406,23.1a13.878,13.878,0,0,1-.8,16.81l6.325,2.112a3.265,3.265,0,0,0,4.131-2.1l8.093-24.251A3.316,3.316,0,0,0,44.028,11.5M39.565,29.377l-2.275.006-4.681-6.3,4.755-6.295,2.3-.009L34.893,23.1Z" transform="translate(-3.46 -0.748)" fill="#004593"/>
      </g>
    </g>
    <g id="마스크_그룹_7660" data-name="마스크 그룹 7660" transform="translate(5.027 -4.583)" clip-path="url(#clip-path-2)">
      <g id="그룹_26984" data-name="그룹 26984" transform="translate(20.184 60.092)">
        <g id="그룹_25983-2" data-name="그룹 25983" clip-path="url(#clip-path-3)">
          <path id="패스_864871-2" data-name="패스 864871" d="M11.622.577A5.349,5.349,0,0,0,8.916,3.7L.28,29.654A5.4,5.4,0,0,0,3.7,36.481L32.02,45.99a5.392,5.392,0,0,0,6.829-3.42l8.641-25.949a5.408,5.408,0,0,0-3.419-6.835L15.75.279a5.358,5.358,0,0,0-4.128.3" transform="translate(0 0)" fill="#fff"/>
          <path id="패스_864872-2" data-name="패스 864872" d="M25.593,25.635a14.787,14.787,0,0,1-5.68,3.961l-1.278.5V18.065l1.263.49a14.833,14.833,0,0,1,5.7,3.944A13.013,13.013,0,0,0,19.3,3.541L15.2,2.179a3.494,3.494,0,0,0-4.421,2.245L2.122,30.395a3.545,3.545,0,0,0,2.27,4.461l19.656,6.563a13.012,13.012,0,0,0,1.546-15.784m-11.362,5.2H12.28V17.348h1.951Z" transform="translate(-0.127 -0.131)" fill="#008ad3"/>
          <path id="패스_864873-2" data-name="패스 864873" d="M25.76,25.392a13.1,13.1,0,0,0-3.956-3.16V28.57a13.043,13.043,0,0,0,3.956-3.178" transform="translate(-1.428 -1.456)" fill="#ec4115"/>
          <path id="패스_864874-2" data-name="패스 864874" d="M45.221,11.9,27.183,5.875a14.855,14.855,0,0,1,1.309,18.446,14.861,14.861,0,0,1-.862,18L34.4,44.583a3.5,3.5,0,0,0,4.424-2.249l8.666-25.969A3.551,3.551,0,0,0,45.221,11.9M40.442,31.042l-2.436.007-5.013-6.743,5.091-6.741,2.458-.009-5.1,6.76Z" transform="translate(-1.78 -0.385)" fill="#004593"/>
          <path id="패스_864875" data-name="패스 864875" d="M98.68,16.738a6.383,6.383,0,0,1,1.888.319c-.007.036-.118,1.172-.125,1.247a4.81,4.81,0,0,0-1.6-.407c-.7,0-1.441.285-1.441,1.08,0,.779.6,1.112,1.453,1.5l.042.018c.971.44,2.3,1.044,2.3,2.491,0,1.626-1.617,2.5-3.136,2.5a4.907,4.907,0,0,1-2.271-.444c0-.036.077-1.2.079-1.279a4.262,4.262,0,0,0,1.9.566c.737,0,1.537-.335,1.537-1.262,0-.68-.785-1.146-1.468-1.479-1.132-.551-2.294-1.28-2.294-2.5,0-1.431,1.228-2.352,3.133-2.352m24.173,0c2.387,0,3.645,1.191,3.645,3.445v5.1h-1.591V24.046l-.15.2a3.088,3.088,0,0,1-2.549,1.237c-2.023,0-3.182-.94-3.182-2.583,0-2.165,2.624-2.739,4.012-2.739.567,0,1.019,0,1.616.032l.088,0v-.085c-.01-1.575-.63-2.22-2.139-2.22a4.035,4.035,0,0,0-2.4.82c-.006-.081-.076-1.175-.076-1.2a5.316,5.316,0,0,1,2.732-.774m-.511,7.591a2.173,2.173,0,0,0,2.4-2.272v-.8l-1.04-.035c-.9,0-2.985.164-2.985,1.676a1.547,1.547,0,0,0,1.626,1.426M75.69,33.7c2.39,0,3.649,1.189,3.649,3.447v5.1h-1.6v-1.24l-.147.2a3.08,3.08,0,0,1-2.551,1.24c-2.024,0-3.183-.944-3.183-2.588,0-2.163,2.628-2.734,4.011-2.734.569,0,1.019,0,1.617.033l.089,0v-.087c-.006-1.572-.63-2.216-2.137-2.216a4.053,4.053,0,0,0-2.406.816c-.006-.09-.076-1.173-.078-1.2A5.358,5.358,0,0,1,75.69,33.7m-.511,7.589a2.17,2.17,0,0,0,2.4-2.271v-.792l-1.043-.036c-.9,0-2.982.165-2.982,1.674a1.54,1.54,0,0,0,1.624,1.425M159.713,33.7c2.388,0,3.647,1.189,3.647,3.447v5.1h-1.6v-1.24l-.148.2a3.082,3.082,0,0,1-2.548,1.24c-2.022,0-3.186-.944-3.186-2.588,0-2.163,2.623-2.734,4.011-2.734.57,0,1.021,0,1.618.033l.087,0v-.087c-.009-1.572-.627-2.216-2.136-2.216a4.046,4.046,0,0,0-2.405.816c0-.083-.073-1.173-.078-1.2a5.387,5.387,0,0,1,2.734-.773m-.516,7.589a2.173,2.173,0,0,0,2.406-2.271v-.792l-1.046-.036c-.9,0-2.981.165-2.981,1.674a1.541,1.541,0,0,0,1.621,1.425M106.377,33.7a4.248,4.248,0,0,1,4.409,4.375,4.419,4.419,0,0,1-8.838,0,4.257,4.257,0,0,1,4.429-4.375m0,7.589c1.824,0,2.659-1.666,2.659-3.215s-.929-3.213-2.659-3.213-2.677,1.656-2.677,3.213.838,3.215,2.677,3.215M135.37,33.7a4.247,4.247,0,0,1,4.409,4.375,4.418,4.418,0,0,1-8.836,0A4.255,4.255,0,0,1,135.37,33.7m0,7.589c1.826,0,2.662-1.666,2.662-3.215s-.93-3.213-2.662-3.213-2.679,1.656-2.679,3.213.841,3.215,2.679,3.215M150.984,33.7c2.437,0,3.733,1.618,3.746,4.674h-6.094v.082a2.82,2.82,0,0,0,2.831,2.833,5.416,5.416,0,0,0,2.619-.8v1.434c-.043.014-.2.07-.2.07a6.406,6.406,0,0,1-2.488.463,4.173,4.173,0,0,1-4.557-4.525,4.047,4.047,0,0,1,4.14-4.227m-2.356,3.614H153.1V37.23a2.176,2.176,0,0,0-2.153-2.365,2.376,2.376,0,0,0-2.312,2.358l-.006.064ZM62.747,25.287h1.714V13.937H62.747Zm0,5.615,1.863.006h1.427c2.662,0,4.07.984,4.07,2.837A2.569,2.569,0,0,1,67.88,36.4l-.043.01.011.144.045.007a2.825,2.825,0,0,1,2.775,2.692c0,1.934-1.663,3-4.682,3H62.747Zm1.783,4.889h.949c1.606,0,3.053-.141,3.053-1.882,0-1.583-1.563-1.755-2.233-1.755H64.53v3.637Zm0,5.218H65.8c2.016,0,2.99-.624,2.99-1.9,0-1.853-1.8-2.064-3.155-2.064H64.53v3.968Zm63.9-15.723h1.713V13.937h-1.713Zm-15.5,8.188V33.9h-1.9v1.159h1.9v7.189h1.711V35.062h2.074V33.9h-2.074v-.559c0-1.093.12-2,1.535-2a1.6,1.6,0,0,1,.558.081c0-.064.061-1.158.061-1.206a7.35,7.35,0,0,0-1.079-.094c-2.449,0-2.786,1.609-2.786,3.347M91.231,30.9v11.35h1.716V37.833s3.83,4.4,3.847,4.418h2.113c-.077-.083-4.252-4.9-4.252-4.9s3.324-3.363,3.407-3.453H96.446c-.018.014-3.5,3.5-3.5,3.5V30.9Zm24.532-5.615h1.709V16.934h-1.709Zm0-9.693h1.709V13.936h-1.709Zm-2.57,1.144h0a2.537,2.537,0,0,0-2.1,1.363v-.007a1.87,1.87,0,0,1-.1.2l-.055.1V16.934h-1.65v8.353h1.719v-3.8c0-2.055.9-3.4,2.343-3.5a2.855,2.855,0,0,1,.922.136V16.838a4,4,0,0,0-1.078-.1M145.1,33.7h0a2.539,2.539,0,0,0-2.092,1.364v-.006c-.007.012-.026.05-.108.2l-.046.1V33.9H141.2v8.348h1.715V38.459c0-2.055.9-3.4,2.345-3.5a2.812,2.812,0,0,1,.921.133v-1.29a3.946,3.946,0,0,0-1.081-.1M103.863,14.845v2.089h-1.906v1.161h1.906v4.988a2.119,2.119,0,0,0,2.416,2.4,7.491,7.491,0,0,0,1.549-.221V23.972a2.079,2.079,0,0,1-.886.214,1.265,1.265,0,0,1-1.353-1.419l-.013-4.673h2.119V16.934h-2.119V14.845Zm-19.687-.908v11.35H82.46V23.933l-.148.223a3.4,3.4,0,0,1-2.814,1.33c-2.577,0-3.75-2.346-3.75-4.523,0-2.036,1.178-4.225,3.765-4.225a3.115,3.115,0,0,1,2.8,1.294l.15.239V13.937Zm-6.7,7.14v.089a3.77,3.77,0,0,0,.915,2.536,1.991,1.991,0,0,0,1.47.627c1.742,0,2.529-1.659,2.529-3.2S81.6,17.9,79.846,17.9a2.086,2.086,0,0,0-1.545.62,3.53,3.53,0,0,0-.825,2.449Zm-9.125-2.948-.152.207v-1.4H66.488v8.353H68.2V21.425c0-2.275.933-3.53,2.616-3.53,1.323.08,1.844.944,1.844,3.067v4.324h1.712V20.314c0-2.34-1.089-3.576-3.155-3.576a3.489,3.489,0,0,0-2.864,1.391M83.293,35.094h0l-.152.21V33.9H81.432v8.348H83.14V38.393c0-2.275.932-3.528,2.62-3.528,1.325.078,1.842.94,1.842,3.065v4.321h1.714V37.282c0-2.34-1.093-3.579-3.154-3.579a3.493,3.493,0,0,0-2.87,1.391m8.948-18.16V20.8c0,2.275-.934,3.53-2.62,3.53-1.322-.086-1.836-.942-1.836-3.067V16.934H86.068v4.972c0,2.343,1.093,3.58,3.154,3.58A3.494,3.494,0,0,0,92.087,24.1l.154-.211v1.4h1.714V16.934ZM128.58,30.9c-.017.018-4.3,5.092-4.3,5.092h-.159V30.9H122.19V42.251h1.931V36.664h.159s4.417,5.57,4.435,5.588H131c-.072-.083-5.077-6.178-5.077-6.178s4.472-5.086,4.552-5.174Z" transform="translate(-4.108 -0.912)" fill="#fff"/>
        </g>
      </g>
    </g>
  </g>
</svg>
