<svg xmlns="http://www.w3.org/2000/svg" width="13" height="13" viewBox="0 0 13 13">
  <g id="그룹_25671" data-name="그룹 25671" transform="translate(13932 17079)">
    <rect id="사각형_7951" data-name="사각형 7951" width="13" height="13" transform="translate(-13932 -17079)" fill="#ff2424" opacity="0"/>
    <path id="패스_15897" data-name="패스 15897" d="M12.628,9.991a4.833,4.833,0,0,0-2.1-6.116,5.053,5.053,0,0,0-4.953-.012L4.961,2.8a6.316,6.316,0,0,1,6.191.014A6.04,6.04,0,0,1,13.711,10.6l.834.472-2.588,1.35-.1-2.874ZM3.462,6.207a4.833,4.833,0,0,0,2.1,6.116,5.053,5.053,0,0,0,4.953.012l.617,1.059a6.316,6.316,0,0,1-6.191-.014A6.04,6.04,0,0,1,2.379,5.594l-.834-.472,2.588-1.35.1,2.874Z" transform="translate(-13933.545 -17080.602)" fill="#fff"/>
  </g>
</svg>
