<svg xmlns="http://www.w3.org/2000/svg" width="13" height="13.002" viewBox="0 0 13 13.002">
  <g id="그룹_25672" data-name="그룹 25672" transform="translate(-8 -273)">
    <rect id="사각형_7959" data-name="사각형 7959" width="13" height="13" transform="translate(8 273)" fill="#ff2424" opacity="0"/>
    <path id="합치기_5" data-name="합치기 5" d="M13901,17349a1,1,0,0,1-1-1v-11a1,1,0,0,1,1-1h9a1,1,0,0,1,1,1v11a1,1,0,0,1-1,1Zm0-1h9v-11h-9Zm1-4v-1h4v1Zm0-2v-1h7v1Zm0-2v-1h7v1Z" transform="translate(-13891 -17063)" fill="#d0d1d1"/>
  </g>
</svg>
