<svg xmlns="http://www.w3.org/2000/svg" width="13.001" height="13" viewBox="0 0 13.001 13">
  <g id="그룹_25670" data-name="그룹 25670" transform="translate(-10 -239)">
    <rect id="사각형_7952" data-name="사각형 7952" width="13" height="13" transform="translate(10 239)" fill="#ff2424" opacity="0"/>
    <g id="그룹_25669" data-name="그룹 25669" transform="translate(0 -0.5)">
      <path id="합치기_6" data-name="합치기 6" d="M13886,17347.5a1,1,0,1,1,1,1A1,1,0,0,1,13886,17347.5Zm4.5.5a.5.5,0,0,1,0-1h8a.5.5,0,0,1,0,1Zm-4.5-4.5a1,1,0,1,1,1,1A1,1,0,0,1,13886,17343.5Zm4.5.5a.5.5,0,0,1,0-1h8a.5.5,0,0,1,0,1Zm-4.5-4.5a1,1,0,1,1,1,1A1,1,0,0,1,13886,17339.5Zm4.5.5a.5.5,0,0,1,0-1h8a.5.5,0,1,1,0,1Z" transform="translate(-13876 -17097.5)" fill="#d0d1d1"/>
    </g>
  </g>
</svg>
