<svg xmlns="http://www.w3.org/2000/svg" xmlns:xlink="http://www.w3.org/1999/xlink" width="108.65" height="66.102" viewBox="0 0 108.65 66.102">
  <defs>
    <filter id="패스_865003" x="0" y="0" width="108.65" height="53.73" filterUnits="userSpaceOnUse">
      <feOffset input="SourceAlpha"/>
      <feGaussianBlur stdDeviation="7.5" result="blur"/>
      <feFlood flood-opacity="0.455"/>
      <feComposite operator="in" in2="blur"/>
      <feComposite in="SourceGraphic"/>
    </filter>
  </defs>
  <g id="그룹_26979" data-name="그룹 26979" transform="translate(-1332.98 -824.898)">
    <g transform="matrix(1, 0, 0, 1, 1332.98, 824.9)" filter="url(#패스_865003)">
      <path id="패스_865003-2" data-name="패스 865003" d="M5.4-6.152A1.143,1.143,0,0,0,4.919-7a1.852,1.852,0,0,0-1.1-.3,2.258,2.258,0,0,0-.835.141,1.211,1.211,0,0,0-.542.393.937.937,0,0,0-.187.574.846.846,0,0,0,.4.747A3.271,3.271,0,0,0,3.7-5.027l.8.211a4.2,4.2,0,0,1,1.79.835,1.981,1.981,0,0,1,.694,1.6A2.3,2.3,0,0,1,6.6-1.066a2.466,2.466,0,0,1-1.1.882A4.322,4.322,0,0,1,3.773.129,4.389,4.389,0,0,1,2.06-.179a2.555,2.555,0,0,1-1.14-.9A2.594,2.594,0,0,1,.48-2.5h1.5a1.256,1.256,0,0,0,.539.979,2.15,2.15,0,0,0,1.242.346,2.337,2.337,0,0,0,.882-.155,1.423,1.423,0,0,0,.6-.431,1,1,0,0,0,.217-.633.849.849,0,0,0-.387-.729,3.68,3.68,0,0,0-1.148-.454L2.965-3.82Q.7-4.412.7-6.105a2.184,2.184,0,0,1,.4-1.3,2.649,2.649,0,0,1,1.113-.879A3.916,3.916,0,0,1,3.82-8.6a3.789,3.789,0,0,1,1.573.311,2.541,2.541,0,0,1,1.075.87,2.246,2.246,0,0,1,.4,1.269ZM10.957.129a3.072,3.072,0,0,1-1.62-.416,2.753,2.753,0,0,1-1.058-1.16A3.788,3.788,0,0,1,7.91-3.152a3.784,3.784,0,0,1,.375-1.72,2.768,2.768,0,0,1,1.063-1.16,3.066,3.066,0,0,1,1.608-.413,3.175,3.175,0,0,1,1.362.281,2.354,2.354,0,0,1,.958.8,2.38,2.38,0,0,1,.41,1.2h-1.43a1.359,1.359,0,0,0-.428-.773,1.265,1.265,0,0,0-.861-.3A1.36,1.36,0,0,0,10.157-5a1.609,1.609,0,0,0-.542.715,2.854,2.854,0,0,0-.193,1.1,2.991,2.991,0,0,0,.19,1.122,1.606,1.606,0,0,0,.539.724,1.358,1.358,0,0,0,.817.252,1.316,1.316,0,0,0,.847-.287,1.307,1.307,0,0,0,.442-.791h1.43a2.5,2.5,0,0,1-.4,1.192,2.35,2.35,0,0,1-.943.812A3.1,3.1,0,0,1,10.957.129Zm3.855-6.492h1.453v1.055h.07a1.585,1.585,0,0,1,.592-.847,1.638,1.638,0,0,1,.979-.3,4.35,4.35,0,0,1,.539.035v1.383a1.592,1.592,0,0,0-.3-.062q-.2-.026-.39-.032a1.518,1.518,0,0,0-.738.179,1.33,1.33,0,0,0-.516.492,1.36,1.36,0,0,0-.187.712V0h-1.5Zm7.1,6.492A3.083,3.083,0,0,1,20.3-.281a2.753,2.753,0,0,1-1.063-1.154,3.765,3.765,0,0,1-.375-1.717,3.793,3.793,0,0,1,.375-1.729A2.753,2.753,0,0,1,20.3-6.035a3.083,3.083,0,0,1,1.608-.41,3.1,3.1,0,0,1,1.611.41,2.728,2.728,0,0,1,1.063,1.154,3.818,3.818,0,0,1,.372,1.729,3.79,3.79,0,0,1-.372,1.717A2.728,2.728,0,0,1,23.52-.281,3.1,3.1,0,0,1,21.908.129ZM20.373-3.164a3.119,3.119,0,0,0,.173,1.072,1.647,1.647,0,0,0,.521.75,1.333,1.333,0,0,0,.853.275,1.3,1.3,0,0,0,.838-.275,1.657,1.657,0,0,0,.519-.75,3.03,3.03,0,0,0,.167-1.072,3.03,3.03,0,0,0-.167-1.072,1.657,1.657,0,0,0-.519-.75,1.3,1.3,0,0,0-.838-.275,1.333,1.333,0,0,0-.853.275,1.647,1.647,0,0,0-.521.75A3.119,3.119,0,0,0,20.373-3.164ZM27.615,0h-1.5V-8.484h1.5Zm2.93,0h-1.5V-8.484h1.5Zm6.645.117a2.445,2.445,0,0,1-1.351-.4A2.606,2.606,0,0,1,34.9-1.412a4.216,4.216,0,0,1-.34-1.764,4.144,4.144,0,0,1,.346-1.77,2.582,2.582,0,0,1,.943-1.119A2.454,2.454,0,0,1,37.2-6.445a1.831,1.831,0,0,1,1.163.331,2.364,2.364,0,0,1,.653.794h.059V-8.484h1.488V0H39.1V-1.008h-.082A1.929,1.929,0,0,1,37.189.117Zm-1.1-3.3a3.059,3.059,0,0,0,.176,1.078,1.62,1.62,0,0,0,.516.732,1.3,1.3,0,0,0,.82.264,1.309,1.309,0,0,0,.814-.258,1.6,1.6,0,0,0,.519-.727,3.05,3.05,0,0,0,.179-1.09,2.49,2.49,0,0,0-.4-1.485A1.31,1.31,0,0,0,37.6-5.227a1.317,1.317,0,0,0-.826.261,1.584,1.584,0,0,0-.513.721A3,3,0,0,0,36.088-3.187ZM44.854.129a3.083,3.083,0,0,1-1.608-.41,2.753,2.753,0,0,1-1.063-1.154,3.765,3.765,0,0,1-.375-1.717,3.793,3.793,0,0,1,.375-1.729,2.753,2.753,0,0,1,1.063-1.154,3.083,3.083,0,0,1,1.608-.41,3.1,3.1,0,0,1,1.611.41,2.728,2.728,0,0,1,1.063,1.154A3.818,3.818,0,0,1,47.9-3.152a3.79,3.79,0,0,1-.372,1.717A2.728,2.728,0,0,1,46.465-.281,3.1,3.1,0,0,1,44.854.129ZM43.318-3.164a3.119,3.119,0,0,0,.173,1.072,1.647,1.647,0,0,0,.521.75,1.333,1.333,0,0,0,.853.275,1.3,1.3,0,0,0,.838-.275,1.657,1.657,0,0,0,.519-.75,3.03,3.03,0,0,0,.167-1.072,3.03,3.03,0,0,0-.167-1.072,1.657,1.657,0,0,0-.519-.75,1.3,1.3,0,0,0-.838-.275,1.333,1.333,0,0,0-.853.275,1.647,1.647,0,0,0-.521.75A3.119,3.119,0,0,0,43.318-3.164Zm5.086-3.2h1.523l1.125,4.477h.059l1.137-4.477H53.76L54.908-1.91h.059L56.08-6.363H57.6L55.8,0H54.24l-1.2-4.312h-.082L51.768,0H50.209ZM60.053,0h-1.5V-6.363h1.43v1.078h.082a1.784,1.784,0,0,1,.706-.853,2.155,2.155,0,0,1,1.181-.308,2.287,2.287,0,0,1,1.154.281,1.875,1.875,0,0,1,.759.82,2.88,2.88,0,0,1,.267,1.289V0H62.643V-3.82a1.438,1.438,0,0,0-.328-1A1.157,1.157,0,0,0,61.4-5.18a1.358,1.358,0,0,0-.7.167,1.185,1.185,0,0,0-.475.5,1.692,1.692,0,0,0-.17.782Z" transform="translate(22.02 31.1)" fill="#fff"/>
    </g>
    <g id="그룹_26845" data-name="그룹 26845" transform="translate(-42.233 -0.233)">
      <rect id="사각형_357772" data-name="사각형 357772" width="16" height="16" transform="translate(1421.233 875.233)" fill="#bbb" opacity="0"/>
      <g id="그룹_26843" data-name="그룹 26843" transform="translate(1421.749 877.246)">
        <path id="패스_864745" data-name="패스 864745" d="M3067.192,2843.6l7.485,5.988,7.485-5.988" transform="translate(-3067.192 -2837.609)" fill="none" stroke="#fff" stroke-width="1"/>
        <path id="패스_864746" data-name="패스 864746" d="M3067.192,2843.6l7.485,5.988,7.485-5.988" transform="translate(-3067.192 -2843.597)" fill="none" stroke="#fff" stroke-width="1"/>
      </g>
    </g>
  </g>
</svg>
