<svg id="그룹_26225" data-name="그룹 26225" xmlns="http://www.w3.org/2000/svg" width="18" height="18" viewBox="0 0 18 18">
  <rect id="사각형_357470" data-name="사각형 357470" width="18" height="18" fill="#add6ff" opacity="0"/>
  <path id="패스_864930" data-name="패스 864930" d="M14.364,10.863H12.455V3h1.909A.646.646,0,0,1,15,3.655v6.552A.646.646,0,0,1,14.364,10.863ZM11,11.71,6.922,15.9a.311.311,0,0,1-.416.03l-.543-.419a1,1,0,0,1-.352-1.029l.734-2.968H2.273A1.292,1.292,0,0,1,1,10.208V8.829a1.344,1.344,0,0,1,.1-.5L3.065,3.406A.637.637,0,0,1,3.653,3h6.892a.646.646,0,0,1,.636.655v7.592A.665.665,0,0,1,11,11.71Z" transform="translate(1 -0.5)" fill="#e04f76"/>
</svg>
