<svg id="그룹_26226" data-name="그룹 26226" xmlns="http://www.w3.org/2000/svg" width="18" height="18" viewBox="0 0 18 18">
  <rect id="사각형_357470" data-name="사각형 357470" width="18" height="18" fill="#add6ff" opacity="0"/>
  <path id="패스_864930" data-name="패스 864930" d="M1.636,8.137H3.545V16H1.636A.646.646,0,0,1,1,15.345V8.792A.646.646,0,0,1,1.636,8.137ZM5,7.29,9.078,3.1a.311.311,0,0,1,.416-.03l.543.419a1,1,0,0,1,.352,1.029L9.654,7.482h4.073A1.292,1.292,0,0,1,15,8.792v1.379a1.344,1.344,0,0,1-.1.5l-1.969,4.924a.637.637,0,0,1-.588.406H5.455a.646.646,0,0,1-.636-.655V7.753A.665.665,0,0,1,5,7.29Z" transform="translate(1 -0.5)" fill="#188afa"/>
</svg>
