<svg xmlns="http://www.w3.org/2000/svg" xmlns:xlink="http://www.w3.org/1999/xlink" width="65" height="36" viewBox="0 0 65 36">
  <defs>
    <clipPath id="clip-path">
      <rect id="사각형_357779" data-name="사각형 357779" width="65" height="36" transform="translate(404 133)" fill="red" opacity="0.356"/>
    </clipPath>
    <clipPath id="clip-path-2">
      <rect id="사각형_357229" data-name="사각형 357229" width="64.774" height="35.203" transform="translate(0 0)" fill="#fff"/>
    </clipPath>
  </defs>
  <g id="마스크_그룹_7625" data-name="마스크 그룹 7625" transform="translate(-404 -133)" clip-path="url(#clip-path)">
    <g id="그룹_25980" data-name="그룹 25980" transform="translate(404 133.796)" clip-path="url(#clip-path-2)">
      <path id="패스_864854" data-name="패스 864854" d="M53.532,125.37H51.314c-1.391,0-2.127.648-2.127,1.875v3.986h1.677V127.57c0-.186,0-.621.865-.621h1.4c.754,0,.85.331.85.621v3.661h1.662v-3.986c0-1.227-.73-1.875-2.112-1.875" transform="translate(-37.311 -96.203)" fill="#fff"/>
      <path id="패스_864855" data-name="패스 864855" d="M152.935,124.346a2.615,2.615,0,0,0-1.444-.316h-2.182a2.846,2.846,0,0,0-1.475.313,1.43,1.43,0,0,0-.73,1.279v2.712a1.359,1.359,0,0,0,.583,1.155,2.755,2.755,0,0,0,1.621.4h2.182a2.622,2.622,0,0,0,1.423-.312,1.376,1.376,0,0,0,.717-1.245v-2.712a1.406,1.406,0,0,0-.7-1.276m-.98,3.735a.359.359,0,0,1-.2.339.955.955,0,0,1-.527.115h-1.674a1.065,1.065,0,0,1-.571-.125.358.358,0,0,1-.2-.344v-2.192a.383.383,0,0,1,.213-.373,1.226,1.226,0,0,1,.652-.132h1.5a1.111,1.111,0,0,1,.624.137.383.383,0,0,1,.19.368Z" transform="translate(-112.485 -95.178)" fill="#fff"/>
      <path id="패스_864856" data-name="패스 864856" d="M200.4,127.977v-2.162c0-.194.043-.32.128-.377a1.24,1.24,0,0,1,.658-.114h1.945l.973-1.354h-3.441c-1.6,0-1.94.866-1.94,1.592v2.632c0,1.095.761,1.65,2.262,1.65h2.174l.973-1.355h-2.883c-.85,0-.85-.359-.85-.513" transform="translate(-152.116 -95.131)" fill="#fff"/>
      <path id="패스_864857" data-name="패스 864857" d="M248.644,120.991l3.174-2.864h-2.135l-2.568,2.267v-4.1h-1.676v7.676h1.676V121.56l2.689,2.414h2.183Z" transform="translate(-187.979 -89.261)" fill="#fff"/>
      <path id="패스_864858" data-name="패스 864858" d="M4.28,125.37H.066l.973,1.355H4.195c.6,0,.645.21.661.281a.2.2,0,0,1,0,.027v.512H2.069a2.521,2.521,0,0,0-1.483.393A1.374,1.374,0,0,0,0,129.122v.6a1.316,1.316,0,0,0,.656,1.169,2.756,2.756,0,0,0,1.484.358h2.4a2.252,2.252,0,0,0,1.427-.421,1.4,1.4,0,0,0,.556-1.15v-2.712c0-1.057-.756-1.593-2.248-1.593m.572,4.124c0,.115,0,.382-.671.382h-1.8a1.056,1.056,0,0,1-.539-.127.285.285,0,0,1-.161-.27v-.169c0-.152,0-.468.686-.468h2.4a.478.478,0,0,1,.085.006Z" transform="translate(0.451 -96.203)" fill="#fff"/>
      <path id="패스_864859" data-name="패스 864859" d="M105.7,117.7h-1.676v1.9h-1.143v1.333h1.143v4.448H105.7v-4.448h.706l.976-1.333H105.7Z" transform="translate(-78.536 -90.335)" fill="#fff"/>
      <path id="패스_864860" data-name="패스 864860" d="M150.191,65.767v5.691h5.374V65.383l-2.653,1.783Z" transform="translate(-114.855 -50.3)" fill="#fff"/>
      <path id="패스_864861" data-name="패스 864861" d="M155.106,36.363H150.65a.464.464,0,0,0-.459.517V42.4l2.653,1.364,2.722-1.829V36.88a.464.464,0,0,0-.459-.517" transform="translate(-114.855 -28.093)" fill="#fff"/>
      <path id="패스_864862" data-name="패스 864862" d="M99.968,39.309H95.439a.422.422,0,0,0-.423.47v6.11l5.375-1.842V39.779a.422.422,0,0,0-.423-.47" transform="translate(-72.495 -30.348)" fill="#fff"/>
      <path id="패스_864863" data-name="패스 864863" d="M95.016,70.518h5.374V64.155L95.016,66Z" transform="translate(-72.495 -49.36)" fill="#fff"/>
      <path id="패스_864864" data-name="패스 864864" d="M127.519,23.673h-4.456a.464.464,0,0,0-.459.517v7.538l2.727-.935,2.647,1.361V24.19a.464.464,0,0,0-.459-.517" transform="translate(-93.675 -18.383)" fill="#fff"/>
      <path id="패스_864865" data-name="패스 864865" d="M122.6,59.689v6.717h5.374V60.184l-2.727-1.4Z" transform="translate(-93.675 -45.249)" fill="#fff"/>
      <path id="패스_864866" data-name="패스 864866" d="M67.429,77.676H72.8V73.509l-5.374,1.842Z" transform="translate(-51.316 -56.518)" fill="#fff"/>
      <path id="패스_864867" data-name="패스 864867" d="M72.344,60.5H67.888a.464.464,0,0,0-.459.517V64.3L72.8,62.459V61.017a.464.464,0,0,0-.459-.517" transform="translate(-51.316 -46.563)" fill="#fff"/>
      <path id="패스_864868" data-name="패스 864868" d="M51.235,82.557h0l-.329.113.329.983,3.508-1.2v-1.1l-.275.094Z" transform="translate(-38.63 -62.522)" fill="#fff"/>
      <path id="패스_864869" data-name="패스 864869" d="M183.153.494A.444.444,0,0,0,182.711,0h-4.49a.444.444,0,0,0-.442.494V13.41L183.153,9.8Z" transform="translate(-136.035 -0.267)" fill="#fff"/>
      <path id="패스_864870" data-name="패스 864870" d="M186.863,34.276l-.871-.08.157.238.248.377-.024-.036.061.092h0l.017.026.046.071-3.02,2.03-.324.218-5.374,3.612v6.769h5.374V38.457l3.912-2.629.026.041.03.045.421.64.676-2.154Z" transform="translate(-136.034 -26.435)" fill="#fff"/>
    </g>
  </g>
</svg>
